<mxfile host="app.diagrams.net" agent="Mozilla/5.0 (Macintosh; Intel Mac OS X 10_15_7) AppleWebKit/537.36 (KHTML, like Gecko) Chrome/140.0.0.0 Safari/537.36 Edg/140.0.0.0" version="28.2.5">
  <diagram name="0925" id="wM9bkoCLA1ZFmSEGqgz8">
    <mxGraphModel dx="929" dy="686" grid="1" gridSize="10" guides="1" tooltips="1" connect="1" arrows="1" fold="1" page="1" pageScale="1" pageWidth="827" pageHeight="1169" math="0" shadow="0">
      <root>
        <mxCell id="0" />
        <mxCell id="1" parent="0" />
        <mxCell id="cbJ7Jyv4pSiHciOKe6jz-2" value="" style="endArrow=none;html=1;rounded=0;strokeWidth=2;" edge="1" parent="1">
          <mxGeometry width="50" height="50" relative="1" as="geometry">
            <mxPoint x="180" y="280" as="sourcePoint" />
            <mxPoint x="360" y="280" as="targetPoint" />
          </mxGeometry>
        </mxCell>
        <mxCell id="cbJ7Jyv4pSiHciOKe6jz-3" value="" style="shape=curlyBracket;whiteSpace=wrap;html=1;rounded=1;flipH=1;labelPosition=right;verticalLabelPosition=middle;align=left;verticalAlign=middle;rotation=90;" vertex="1" parent="1">
          <mxGeometry x="260" y="210" width="20" height="180" as="geometry" />
        </mxCell>
        <mxCell id="cbJ7Jyv4pSiHciOKe6jz-4" value="a" style="text;html=1;align=center;verticalAlign=middle;whiteSpace=wrap;rounded=0;" vertex="1" parent="1">
          <mxGeometry x="240" y="320" width="60" height="30" as="geometry" />
        </mxCell>
        <mxCell id="cbJ7Jyv4pSiHciOKe6jz-8" value="" style="verticalLabelPosition=bottom;verticalAlign=top;html=1;shape=mxgraph.basic.arc;startAngle=0.386465532506977;endAngle=0.7563628056739959;dashed=1;strokeWidth=3;strokeColor=light-dark(#3333FF,#EDEDED);" vertex="1" parent="1">
          <mxGeometry x="360" y="200" width="160" height="160" as="geometry" />
        </mxCell>
        <mxCell id="cbJ7Jyv4pSiHciOKe6jz-11" value="" style="verticalLabelPosition=bottom;verticalAlign=top;html=1;shape=mxgraph.basic.arc;startAngle=0.7658627587152768;endAngle=0.37848458784078204;strokeWidth=1;" vertex="1" parent="1">
          <mxGeometry x="360" y="200" width="160" height="160" as="geometry" />
        </mxCell>
        <mxCell id="cbJ7Jyv4pSiHciOKe6jz-12" value="b&lt;div&gt;第一次相遇&lt;/div&gt;" style="text;html=1;align=center;verticalAlign=middle;whiteSpace=wrap;rounded=0;" vertex="1" parent="1">
          <mxGeometry x="470" y="360" width="70" height="30" as="geometry" />
        </mxCell>
        <mxCell id="cbJ7Jyv4pSiHciOKe6jz-13" value="" style="shape=waypoint;sketch=0;fillStyle=solid;size=6;pointerEvents=1;points=[];fillColor=none;resizable=0;rotatable=0;perimeter=centerPerimeter;snapToPoint=1;strokeColor=light-dark(#0000FF,#EDEDED);fontSize=15;" vertex="1" parent="1">
          <mxGeometry x="483" y="330" width="20" height="20" as="geometry" />
        </mxCell>
        <mxCell id="cbJ7Jyv4pSiHciOKe6jz-14" value="&lt;font style=&quot;font-size: 12px;&quot;&gt;环的周长为c&lt;/font&gt;" style="text;strokeColor=none;fillColor=none;html=1;fontSize=24;fontStyle=1;verticalAlign=middle;align=center;" vertex="1" parent="1">
          <mxGeometry x="520" y="200" width="100" height="40" as="geometry" />
        </mxCell>
      </root>
    </mxGraphModel>
  </diagram>
</mxfile>
